<svg xmlns="http://www.w3.org/2000/svg" viewBox="0 0 128 128" role="img" aria-label="ChemIP beaker icon">
  <defs>
    <linearGradient id="bg" x1="0" y1="0" x2="1" y2="1">
      <stop offset="0" stop-color="#0f172a"/>
      <stop offset="1" stop-color="#1e293b"/>
    </linearGradient>
    <linearGradient id="liq" x1="0" y1="0" x2="1" y2="1">
      <stop offset="0" stop-color="#10b981"/>
      <stop offset="1" stop-color="#06b6d4"/>
    </linearGradient>
  </defs>

  <rect x="8" y="8" width="112" height="112" rx="24" fill="url(#bg)"/>

  <path
    d="M52 24h24v10l20 36c7 13-2 30-18 30H50c-16 0-25-17-18-30l20-36V24Z"
    fill="none"
    stroke="#f8fafc"
    stroke-width="7"
    stroke-linejoin="round"
  />

  <path
    d="M38 76h52c2 8-4 16-12 16H50c-8 0-14-8-12-16Z"
    fill="url(#liq)"
  />

  <circle cx="52" cy="82" r="3.5" fill="#a7f3d0"/>
  <circle cx="66" cy="86" r="2.8" fill="#a5f3fc"/>
  <circle cx="74" cy="80" r="3.2" fill="#99f6e4"/>
</svg>
